<?xml version="1.0" encoding="utf-8"?>
<!-- Generator: Adobe Illustrator 18.1.1, SVG Export Plug-In . SVG Version: 6.00 Build 0)  -->
<svg version="1.2" baseProfile="tiny" id="Capa_1" xmlns="http://www.w3.org/2000/svg" xmlns:xlink="http://www.w3.org/1999/xlink"
	 x="0px" y="0px" viewBox="0 0 599.3 228.3" xml:space="preserve">
<path fill="#0000A0" d="M65.5,2.6h45.3c1.2,0,2.3,1,2.3,2.3v40.3l34.4-20.4c1.1-0.6,2.5-0.3,3.1,0.8l23.1,39.6
	c0.6,1.1,0.3,2.5-0.8,3.1l-35,20.2l35,20.1c1.1,0.6,1.5,2,0.8,3.1l-23,39.2c-0.6,1.1-2,1.4-3.1,0.8l-34.4-20.3v40.1
	c0,1.2-1,2.3-2.3,2.3H65.5c-1.2,0-2.3-1-2.3-2.3l0-40.1l-34.9,20.3c-1.1,0.6-2.5,0.3-3.1-0.8L2.4,111.6c-0.6-1.1-0.3-2.5,0.8-3.1
	l35.2-20.1L3.2,68.3c-1.1-0.6-1.5-2-0.8-3.1l22.8-39.6c0.6-1.1,2-1.5,3.1-0.8l34.9,20.4V4.9C63.2,3.7,64.2,2.6,65.5,2.6z"/>
<g>
	<path fill="#1C1C1C" stroke="#1C1C1C" stroke-miterlimit="10" d="M18.4,199.7c-0.1,0.2-0.2,0.3-0.3,0.4c-0.1,0.1-0.3,0.1-0.5,0.1
		c-0.2,0-0.4-0.1-0.7-0.3c-0.3-0.2-0.6-0.4-1-0.6c-0.4-0.2-0.9-0.4-1.4-0.6c-0.5-0.2-1.2-0.3-1.9-0.3c-0.7,0-1.4,0.1-1.9,0.3
		c-0.5,0.2-1,0.4-1.4,0.8c-0.4,0.3-0.6,0.7-0.8,1.2c-0.2,0.4-0.3,0.9-0.3,1.4c0,0.7,0.2,1.2,0.5,1.6c0.3,0.4,0.8,0.8,1.3,1.1
		c0.5,0.3,1.2,0.6,1.8,0.8c0.7,0.2,1.4,0.5,2.1,0.7c0.7,0.2,1.4,0.5,2.1,0.8c0.7,0.3,1.3,0.7,1.8,1.2c0.5,0.5,1,1.1,1.3,1.8
		s0.5,1.5,0.5,2.5c0,1.1-0.2,2.1-0.5,3c-0.4,0.9-0.9,1.7-1.6,2.4c-0.7,0.7-1.6,1.2-2.6,1.6c-1,0.4-2.2,0.6-3.5,0.6
		c-0.8,0-1.5-0.1-2.3-0.2c-0.7-0.2-1.4-0.4-2.1-0.6c-0.6-0.3-1.3-0.6-1.8-1c-0.6-0.4-1.1-0.8-1.5-1.3l1-1.7c0.1-0.1,0.2-0.2,0.3-0.3
		s0.3-0.1,0.5-0.1c0.2,0,0.5,0.1,0.8,0.4c0.3,0.2,0.7,0.5,1.1,0.8c0.5,0.3,1,0.6,1.6,0.8s1.4,0.4,2.3,0.4c0.8,0,1.4-0.1,2-0.3
		s1.1-0.5,1.5-0.9c0.4-0.4,0.7-0.8,0.9-1.3c0.2-0.5,0.3-1.1,0.3-1.8c0-0.7-0.2-1.3-0.5-1.8c-0.3-0.5-0.8-0.8-1.3-1.1
		c-0.5-0.3-1.2-0.6-1.8-0.8c-0.7-0.2-1.4-0.4-2.1-0.7c-0.7-0.2-1.4-0.5-2.1-0.8s-1.3-0.7-1.8-1.2s-1-1.1-1.3-1.8
		c-0.3-0.7-0.5-1.6-0.5-2.7c0-0.9,0.2-1.7,0.5-2.5c0.3-0.8,0.8-1.5,1.5-2.1s1.4-1.1,2.4-1.5s2-0.6,3.2-0.6c1.4,0,2.6,0.2,3.7,0.6
		c1.1,0.4,2.1,1,3,1.9L18.4,199.7z"/>
	<path fill="#1C1C1C" stroke="#1C1C1C" stroke-miterlimit="10" d="M47.6,202.6c1,0,2,0.2,2.9,0.5c0.9,0.3,1.6,0.8,2.3,1.5
		c0.6,0.7,1.1,1.5,1.5,2.4c0.4,1,0.5,2,0.5,3.3c0,0.5-0.1,0.8-0.2,1c-0.1,0.2-0.3,0.3-0.6,0.3H42.8c0,1,0.2,2,0.4,2.7
		c0.3,0.8,0.6,1.4,1.1,1.9c0.5,0.5,1,0.9,1.6,1.1s1.4,0.4,2.1,0.4c0.7,0,1.4-0.1,1.9-0.3c0.5-0.2,1-0.4,1.4-0.6
		c0.4-0.2,0.7-0.4,1-0.6c0.3-0.2,0.5-0.3,0.7-0.3c0.3,0,0.5,0.1,0.6,0.3l0.9,1.2c-0.4,0.5-0.8,0.9-1.4,1.2c-0.5,0.3-1.1,0.6-1.7,0.8
		c-0.6,0.2-1.2,0.4-1.8,0.5c-0.6,0.1-1.3,0.2-1.9,0.2c-1.2,0-2.3-0.2-3.3-0.6c-1-0.4-1.9-1-2.6-1.8c-0.7-0.8-1.3-1.7-1.7-2.9
		c-0.4-1.1-0.6-2.5-0.6-3.9c0-1.2,0.2-2.3,0.6-3.3c0.4-1,0.9-1.9,1.6-2.7c0.7-0.8,1.5-1.4,2.5-1.8S46.4,202.6,47.6,202.6z M47.7,205
		c-1.4,0-2.5,0.4-3.3,1.2s-1.3,1.9-1.5,3.4H52c0-0.7-0.1-1.3-0.3-1.9c-0.2-0.6-0.5-1-0.8-1.4c-0.4-0.4-0.8-0.7-1.3-1
		C49,205.1,48.4,205,47.7,205z"/>
	<path fill="#1C1C1C" stroke="#1C1C1C" stroke-miterlimit="10" d="M81.7,202.6c0.7,0,1.4,0.1,2.1,0.2c0.6,0.2,1.2,0.4,1.8,0.7h4.7
		v1.2c0,0.4-0.2,0.7-0.7,0.8l-1.9,0.3c0.3,0.7,0.5,1.5,0.5,2.4c0,0.8-0.2,1.6-0.5,2.3c-0.3,0.7-0.8,1.3-1.3,1.7s-1.3,0.9-2,1.1
		s-1.7,0.4-2.6,0.4c-0.8,0-1.5-0.1-2.2-0.3c-0.7,0.4-1.1,0.9-1.1,1.4c0,0.4,0.2,0.7,0.5,0.9c0.3,0.2,0.8,0.3,1.3,0.4
		s1.2,0.1,1.8,0.2s1.4,0.1,2.1,0.1s1.4,0.1,2.1,0.3c0.7,0.1,1.3,0.3,1.8,0.6c0.5,0.3,1,0.7,1.3,1.2c0.3,0.5,0.5,1.1,0.5,1.9
		c0,0.7-0.2,1.5-0.5,2.1c-0.4,0.7-0.9,1.3-1.6,1.8c-0.7,0.5-1.5,1-2.5,1.3c-1,0.3-2.1,0.5-3.4,0.5s-2.4-0.1-3.3-0.4
		c-0.9-0.2-1.7-0.6-2.3-1c-0.6-0.4-1.1-0.9-1.4-1.4c-0.3-0.5-0.5-1.1-0.5-1.7c0-0.8,0.3-1.6,0.8-2.1c0.5-0.6,1.2-1,2.1-1.4
		c-0.5-0.2-0.9-0.5-1.2-0.9c-0.3-0.4-0.4-0.9-0.4-1.5c0-0.2,0-0.5,0.1-0.8c0.1-0.3,0.2-0.5,0.4-0.8c0.2-0.3,0.4-0.5,0.7-0.8
		s0.6-0.4,1-0.6c-0.8-0.5-1.5-1.1-2-1.9c-0.5-0.8-0.7-1.7-0.7-2.7c0-0.8,0.2-1.6,0.5-2.3s0.8-1.3,1.4-1.7c0.6-0.5,1.3-0.9,2.1-1.1
		C79.8,202.7,80.7,202.6,81.7,202.6z M86.9,220.9c0-0.4-0.1-0.7-0.3-1s-0.5-0.4-0.9-0.6c-0.4-0.1-0.8-0.2-1.4-0.3
		c-0.5-0.1-1.1-0.1-1.6-0.1c-0.6,0-1.2-0.1-1.8-0.1c-0.6,0-1.2-0.1-1.7-0.2c-0.6,0.3-1.1,0.7-1.5,1.1c-0.4,0.4-0.6,0.9-0.6,1.5
		c0,0.4,0.1,0.7,0.3,1c0.2,0.3,0.5,0.6,0.9,0.8s0.9,0.4,1.5,0.5c0.6,0.1,1.3,0.2,2.1,0.2c0.8,0,1.5-0.1,2.2-0.2
		c0.6-0.1,1.2-0.3,1.6-0.6c0.4-0.3,0.8-0.6,1-0.9C86.8,221.7,86.9,221.3,86.9,220.9z M81.7,211.5c0.6,0,1.1-0.1,1.6-0.2
		s0.8-0.4,1.1-0.7c0.3-0.3,0.5-0.6,0.7-1s0.2-0.9,0.2-1.3c0-1-0.3-1.8-0.9-2.4c-0.6-0.6-1.5-0.9-2.7-0.9s-2.1,0.3-2.7,0.9
		c-0.6,0.6-0.9,1.4-0.9,2.4c0,0.5,0.1,0.9,0.2,1.3c0.2,0.4,0.4,0.8,0.7,1.1c0.3,0.3,0.7,0.5,1.1,0.7
		C80.5,211.4,81.1,211.5,81.7,211.5z"/>
	<path fill="#1C1C1C" stroke="#1C1C1C" stroke-miterlimit="10" d="M113.5,202.9v10.9c0,1.2,0.3,2.2,0.9,2.9c0.6,0.7,1.4,1,2.6,1
		c0.9,0,1.7-0.2,2.4-0.6c0.7-0.4,1.4-1,2.1-1.7v-12.6h3.2V220h-1.9c-0.4,0-0.7-0.2-0.8-0.6l-0.3-1.8c-0.7,0.8-1.6,1.4-2.5,1.9
		c-0.9,0.5-2,0.7-3.1,0.7c-0.9,0-1.8-0.2-2.5-0.5s-1.3-0.8-1.8-1.3c-0.5-0.6-0.8-1.2-1.1-2c-0.2-0.8-0.4-1.7-0.4-2.6v-10.9H113.5z"
		/>
	<path fill="#1C1C1C" stroke="#1C1C1C" stroke-miterlimit="10" d="M146.5,220v-17.1h1.8c0.3,0,0.6,0.1,0.7,0.2
		c0.1,0.1,0.2,0.3,0.3,0.7l0.2,2.5c0.5-1.1,1.2-2,2-2.7c0.8-0.7,1.7-1,2.8-1c0.4,0,0.7,0,1.1,0.1c0.3,0.1,0.6,0.2,0.9,0.4l-0.2,2.4
		c-0.1,0.3-0.2,0.5-0.5,0.5c-0.2,0-0.4,0-0.7-0.1s-0.6-0.1-1-0.1c-0.5,0-1,0.1-1.4,0.2s-0.8,0.4-1.1,0.7c-0.3,0.3-0.6,0.7-0.9,1.1
		s-0.5,0.9-0.7,1.5V220H146.5z"/>
	<path fill="#1C1C1C" stroke="#1C1C1C" stroke-miterlimit="10" d="M180.1,197.6c0,0.3-0.1,0.6-0.2,0.9c-0.1,0.3-0.3,0.5-0.5,0.7
		s-0.4,0.4-0.7,0.5s-0.6,0.2-0.9,0.2c-0.3,0-0.6-0.1-0.8-0.2c-0.3-0.1-0.5-0.3-0.7-0.5c-0.2-0.2-0.4-0.4-0.5-0.7
		c-0.1-0.3-0.2-0.5-0.2-0.9c0-0.3,0.1-0.6,0.2-0.9c0.1-0.3,0.3-0.5,0.5-0.7c0.2-0.2,0.4-0.4,0.7-0.5c0.3-0.1,0.5-0.2,0.8-0.2
		c0.3,0,0.6,0.1,0.9,0.2c0.3,0.1,0.5,0.3,0.7,0.5c0.2,0.2,0.4,0.4,0.5,0.7S180.1,197.3,180.1,197.6z M179.4,202.9V220h-3.2v-17.1
		H179.4z"/>
	<path fill="#1C1C1C" stroke="#1C1C1C" stroke-miterlimit="10" d="M213.8,220c-0.4,0-0.7-0.2-0.8-0.6l-0.3-2
		c-0.4,0.4-0.7,0.8-1.2,1.2c-0.4,0.4-0.9,0.7-1.3,0.9s-1,0.4-1.5,0.6c-0.5,0.1-1.1,0.2-1.7,0.2c-1,0-1.9-0.2-2.7-0.6
		c-0.8-0.4-1.5-0.9-2-1.7c-0.6-0.7-1-1.7-1.3-2.7c-0.3-1.1-0.5-2.3-0.5-3.8c0-1.3,0.2-2.4,0.5-3.5c0.3-1.1,0.8-2,1.5-2.8
		s1.4-1.4,2.3-1.9c0.9-0.5,1.9-0.7,3.1-0.7c1,0,1.9,0.2,2.7,0.5c0.7,0.3,1.4,0.8,2,1.4v-9.4h3.2V220H213.8z M208,217.7
		c1,0,1.8-0.2,2.5-0.6s1.4-1,2-1.8V207c-0.5-0.7-1.1-1.2-1.8-1.5c-0.6-0.3-1.3-0.4-2.1-0.4c-1.5,0-2.7,0.6-3.6,1.7
		c-0.8,1.1-1.2,2.7-1.2,4.8c0,1.1,0.1,2,0.3,2.8c0.2,0.8,0.5,1.4,0.8,1.9s0.8,0.9,1.3,1.1C206.8,217.5,207.4,217.7,208,217.7z"/>
	<path fill="#1C1C1C" stroke="#1C1C1C" stroke-miterlimit="10" d="M248.6,220c-0.3,0-0.6-0.1-0.7-0.2c-0.2-0.1-0.3-0.3-0.4-0.6
		l-0.4-1.5c-0.4,0.4-0.9,0.8-1.3,1.1c-0.4,0.3-0.9,0.6-1.3,0.8c-0.5,0.2-1,0.4-1.5,0.5s-1.1,0.2-1.8,0.2c-0.7,0-1.3-0.1-1.9-0.3
		s-1.1-0.5-1.5-0.9c-0.4-0.4-0.8-0.9-1-1.4s-0.4-1.2-0.4-2c0-0.7,0.2-1.3,0.5-1.9s1-1.2,1.8-1.7c0.8-0.5,1.9-0.9,3.2-1.2
		c1.3-0.3,3-0.5,4.9-0.5v-1.3c0-1.3-0.3-2.3-0.8-2.9c-0.6-0.7-1.4-1-2.5-1c-0.7,0-1.3,0.1-1.8,0.3c-0.5,0.2-0.9,0.4-1.3,0.6
		c-0.4,0.2-0.7,0.4-0.9,0.6c-0.3,0.2-0.5,0.3-0.8,0.3c-0.2,0-0.4-0.1-0.6-0.2c-0.2-0.1-0.3-0.3-0.4-0.4l-0.6-1c1-0.9,2-1.6,3.1-2
		c1.1-0.5,2.3-0.7,3.7-0.7c1,0,1.8,0.2,2.6,0.5c0.8,0.3,1.4,0.8,1.9,1.3c0.5,0.6,0.9,1.2,1.2,2c0.3,0.8,0.4,1.7,0.4,2.6V220H248.6z
		 M242.2,218c0.5,0,1-0.1,1.4-0.2c0.4-0.1,0.8-0.2,1.2-0.4c0.4-0.2,0.7-0.4,1.1-0.7c0.3-0.3,0.7-0.6,1-0.9v-3.4
		c-1.3,0-2.5,0.2-3.4,0.3c-0.9,0.2-1.7,0.4-2.3,0.7c-0.6,0.3-1,0.6-1.3,1c-0.3,0.4-0.4,0.8-0.4,1.2c0,0.4,0.1,0.8,0.2,1.1
		c0.1,0.3,0.3,0.6,0.6,0.8c0.2,0.2,0.5,0.3,0.9,0.4C241.4,218,241.8,218,242.2,218z"/>
	<path fill="#1C1C1C" stroke="#1C1C1C" stroke-miterlimit="10" d="M284,220c-0.4,0-0.7-0.2-0.8-0.6l-0.3-2c-0.4,0.4-0.7,0.8-1.2,1.2
		c-0.4,0.4-0.9,0.7-1.3,0.9s-1,0.4-1.5,0.6c-0.5,0.1-1.1,0.2-1.7,0.2c-1,0-1.9-0.2-2.7-0.6c-0.8-0.4-1.5-0.9-2-1.7
		c-0.6-0.7-1-1.7-1.3-2.7c-0.3-1.1-0.5-2.3-0.5-3.8c0-1.3,0.2-2.4,0.5-3.5c0.3-1.1,0.8-2,1.5-2.8s1.4-1.4,2.3-1.9
		c0.9-0.5,1.9-0.7,3.1-0.7c1,0,1.9,0.2,2.7,0.5c0.7,0.3,1.4,0.8,2,1.4v-9.4h3.2V220H284z M278.3,217.7c1,0,1.8-0.2,2.5-0.6
		s1.4-1,2-1.8V207c-0.5-0.7-1.1-1.2-1.8-1.5c-0.6-0.3-1.3-0.4-2.1-0.4c-1.5,0-2.7,0.6-3.6,1.7c-0.8,1.1-1.2,2.7-1.2,4.8
		c0,1.1,0.1,2,0.3,2.8c0.2,0.8,0.5,1.4,0.8,1.9s0.8,0.9,1.3,1.1C277,217.5,277.6,217.7,278.3,217.7z"/>
	<path fill="#1C1C1C" stroke="#1C1C1C" stroke-miterlimit="10" d="M344.6,220c-0.3,0-0.6-0.1-0.7-0.2c-0.2-0.1-0.3-0.3-0.4-0.6
		l-0.4-1.5c-0.4,0.4-0.9,0.8-1.3,1.1c-0.4,0.3-0.9,0.6-1.3,0.8c-0.5,0.2-1,0.4-1.5,0.5s-1.1,0.2-1.8,0.2c-0.7,0-1.3-0.1-1.9-0.3
		c-0.6-0.2-1.1-0.5-1.5-0.9c-0.4-0.4-0.8-0.9-1-1.4s-0.4-1.2-0.4-2c0-0.7,0.2-1.3,0.5-1.9s1-1.2,1.8-1.7c0.8-0.5,1.9-0.9,3.2-1.2
		c1.3-0.3,3-0.5,4.9-0.5v-1.3c0-1.3-0.3-2.3-0.8-2.9c-0.6-0.7-1.4-1-2.5-1c-0.7,0-1.3,0.1-1.8,0.3c-0.5,0.2-0.9,0.4-1.3,0.6
		c-0.4,0.2-0.7,0.4-0.9,0.6c-0.3,0.2-0.5,0.3-0.8,0.3c-0.2,0-0.4-0.1-0.6-0.2c-0.2-0.1-0.3-0.3-0.4-0.4l-0.6-1c1-0.9,2-1.6,3.1-2
		c1.1-0.5,2.3-0.7,3.7-0.7c1,0,1.8,0.2,2.6,0.5c0.8,0.3,1.4,0.8,1.9,1.3s0.9,1.2,1.2,2c0.3,0.8,0.4,1.7,0.4,2.6V220H344.6z
		 M338.2,218c0.5,0,1-0.1,1.4-0.2c0.4-0.1,0.8-0.2,1.2-0.4c0.4-0.2,0.7-0.4,1.1-0.7c0.3-0.3,0.7-0.6,1-0.9v-3.4
		c-1.3,0-2.5,0.2-3.4,0.3c-0.9,0.2-1.7,0.4-2.3,0.7c-0.6,0.3-1,0.6-1.3,1c-0.3,0.4-0.4,0.8-0.4,1.2c0,0.4,0.1,0.8,0.2,1.1
		s0.3,0.6,0.6,0.8c0.2,0.2,0.5,0.3,0.9,0.4C337.4,218,337.8,218,338.2,218z"/>
	<path fill="#1C1C1C" stroke="#1C1C1C" stroke-miterlimit="10" d="M371,195.1V220h-3.2v-24.9H371z"/>
	<path fill="#1C1C1C" stroke="#1C1C1C" stroke-miterlimit="10" d="M422.9,217.1h10.3v2.9h-13.8v-24.2h3.5V217.1z"/>
	<path fill="#1C1C1C" stroke="#1C1C1C" stroke-miterlimit="10" d="M457.3,197.6c0,0.3-0.1,0.6-0.2,0.9c-0.1,0.3-0.3,0.5-0.5,0.7
		s-0.5,0.4-0.7,0.5c-0.3,0.1-0.6,0.2-0.9,0.2c-0.3,0-0.6-0.1-0.8-0.2c-0.3-0.1-0.5-0.3-0.7-0.5c-0.2-0.2-0.4-0.4-0.5-0.7
		c-0.1-0.3-0.2-0.5-0.2-0.9c0-0.3,0.1-0.6,0.2-0.9c0.1-0.3,0.3-0.5,0.5-0.7c0.2-0.2,0.4-0.4,0.7-0.5c0.3-0.1,0.5-0.2,0.8-0.2
		c0.3,0,0.6,0.1,0.9,0.2c0.3,0.1,0.5,0.3,0.7,0.5c0.2,0.2,0.4,0.4,0.5,0.7C457.2,197,457.3,197.3,457.3,197.6z M456.7,202.9V220
		h-3.2v-17.1H456.7z"/>
	<path fill="#1C1C1C" stroke="#1C1C1C" stroke-miterlimit="10" d="M478.7,220v-17.1h1.9c0.4,0,0.7,0.2,0.8,0.6l0.2,1.7
		c0.6-0.8,1.3-1.4,2.1-1.9s1.7-0.7,2.7-0.7c1.1,0,2.1,0.3,2.8,0.9c0.7,0.6,1.2,1.5,1.5,2.5c0.2-0.6,0.6-1.1,1-1.6
		c0.4-0.4,0.8-0.8,1.3-1.1c0.5-0.3,1-0.5,1.5-0.6s1.1-0.2,1.7-0.2c1.8,0,3.2,0.6,4.2,1.7c1,1.1,1.5,2.7,1.5,4.8V220h-3.2v-10.9
		c0-1.3-0.3-2.3-0.9-2.9c-0.6-0.7-1.4-1-2.5-1c-0.5,0-0.9,0.1-1.4,0.3c-0.4,0.2-0.8,0.4-1.1,0.7s-0.6,0.7-0.8,1.2
		c-0.2,0.5-0.3,1.1-0.3,1.7V220h-3.2v-10.9c0-1.3-0.3-2.3-0.8-3c-0.5-0.6-1.3-1-2.4-1c-0.7,0-1.4,0.2-2,0.6
		c-0.6,0.4-1.2,0.9-1.7,1.6V220H478.7z"/>
	<path fill="#1C1C1C" stroke="#1C1C1C" stroke-miterlimit="10" d="M527.7,197.6c0,0.3-0.1,0.6-0.2,0.9c-0.1,0.3-0.3,0.5-0.5,0.7
		s-0.5,0.4-0.7,0.5c-0.3,0.1-0.6,0.2-0.9,0.2c-0.3,0-0.6-0.1-0.8-0.2c-0.3-0.1-0.5-0.3-0.7-0.5c-0.2-0.2-0.4-0.4-0.5-0.7
		c-0.1-0.3-0.2-0.5-0.2-0.9c0-0.3,0.1-0.6,0.2-0.9c0.1-0.3,0.3-0.5,0.5-0.7c0.2-0.2,0.4-0.4,0.7-0.5c0.3-0.1,0.5-0.2,0.8-0.2
		c0.3,0,0.6,0.1,0.9,0.2c0.3,0.1,0.5,0.3,0.7,0.5c0.2,0.2,0.4,0.4,0.5,0.7C527.7,197,527.7,197.3,527.7,197.6z M527.1,202.9V220
		h-3.2v-17.1H527.1z"/>
	<path fill="#1C1C1C" stroke="#1C1C1C" stroke-miterlimit="10" d="M554.5,220.3c-1.4,0-2.4-0.4-3.2-1.1c-0.7-0.8-1.1-1.9-1.1-3.3
		v-10.3h-2c-0.2,0-0.3-0.1-0.5-0.2c-0.1-0.1-0.2-0.3-0.2-0.5v-1.3l2.8-0.4l0.7-5.2c0-0.2,0.1-0.3,0.3-0.4c0.1-0.1,0.3-0.2,0.5-0.2
		h1.6v5.8h4.9v2.3h-4.9v10.1c0,0.7,0.2,1.2,0.5,1.5c0.3,0.3,0.8,0.5,1.3,0.5c0.3,0,0.6,0,0.8-0.1c0.2-0.1,0.4-0.2,0.6-0.3
		c0.2-0.1,0.3-0.2,0.4-0.3c0.1-0.1,0.2-0.1,0.3-0.1c0.1,0,0.2,0,0.2,0.1c0.1,0,0.1,0.1,0.2,0.2l0.9,1.5c-0.5,0.5-1.2,0.9-1.9,1.1
		S555.2,220.3,554.5,220.3z"/>
	<path fill="#1C1C1C" stroke="#1C1C1C" stroke-miterlimit="10" d="M585.6,202.6c1,0,2,0.2,2.9,0.5s1.6,0.8,2.3,1.5
		c0.6,0.7,1.1,1.5,1.5,2.4c0.4,1,0.5,2,0.5,3.3c0,0.5-0.1,0.8-0.2,1c-0.1,0.2-0.3,0.3-0.6,0.3h-11.3c0,1,0.2,2,0.4,2.7
		c0.3,0.8,0.6,1.4,1.1,1.9s1,0.9,1.6,1.1c0.6,0.3,1.4,0.4,2.1,0.4c0.7,0,1.4-0.1,1.9-0.3c0.5-0.2,1-0.4,1.4-0.6
		c0.4-0.2,0.7-0.4,1-0.6s0.5-0.3,0.7-0.3c0.3,0,0.5,0.1,0.6,0.3l0.9,1.2c-0.4,0.5-0.8,0.9-1.4,1.2c-0.5,0.3-1.1,0.6-1.7,0.8
		c-0.6,0.2-1.2,0.4-1.8,0.5c-0.6,0.1-1.3,0.2-1.9,0.2c-1.2,0-2.3-0.2-3.3-0.6c-1-0.4-1.9-1-2.6-1.8c-0.7-0.8-1.3-1.7-1.7-2.9
		c-0.4-1.1-0.6-2.5-0.6-3.9c0-1.2,0.2-2.3,0.6-3.3c0.4-1,0.9-1.9,1.6-2.7c0.7-0.8,1.5-1.4,2.5-1.8S584.3,202.6,585.6,202.6z
		 M585.6,205c-1.4,0-2.5,0.4-3.3,1.2c-0.8,0.8-1.3,1.9-1.5,3.4h9.1c0-0.7-0.1-1.3-0.3-1.9c-0.2-0.6-0.5-1-0.8-1.4
		c-0.4-0.4-0.8-0.7-1.3-1S586.3,205,585.6,205z"/>
</g>
<g>
	<path d="M155.7,56.9c-0.6-1.7-5.3-0.8-5.3-0.8s-4.4,0.4-11.6,0.2c-7.2-0.2-9.5-1.9-16-3.4c-6.5-1.6-13.4-2.3-15.8-2
		c-2.4,0.3-6.1,1.3-6.7,3.8s-0.2,6-0.4,7.5c-0.2,1.3-2.8,2.3-3.5,2.6c0,0-0.1,0-0.2,0v-2.9c0.7,0,1.3-0.6,1.3-1.3v-3.8
		c0-0.7-0.6-1.3-1.3-1.3h-2c1.3-1.3,2.2-3.1,2.2-5.2c0-4-3.2-7.2-7.2-7.2c-4,0-7.2,3.2-7.2,7.2c0,2,0.8,3.9,2.2,5.2H82
		c-0.7,0-1.3,0.6-1.3,1.3v3.8c0,0.7,0.6,1.3,1.3,1.3h0.2v2.8c-0.1,0-0.3,0-0.4,0c-0.9-0.4-3.1-1.3-3.3-2.5c-0.2-1.5,0.2-5.1-0.4-7.5
		s-4.3-3.4-6.7-3.8c-2.4-0.3-9.4,0.4-15.8,2c-6.5,1.6-8.8,3.3-16,3.4c-7.2,0.2-11.6-0.2-11.6-0.2s-4.7-0.9-5.3,0.8
		C22,58.6,25,60.8,25,60.8s2.7,2.3,7.3,3c0.9,2.9,5,3.8,5,3.8s2.2,0.5,3.9,0.4c-0.4,1.6,3.9,3.7,3.9,3.7s1.7,0.6,4.8,0.6
		c2,2.4,5.8,2.6,5.8,2.6s1.4,0,2.6-0.5c0.7,1.6,3.2,2,3.2,2s0.9,0.2,3.2-0.4c1.5,1.5,3.1,1.5,3.1,1.5s1.7,0.4,4-0.7
		c2,1.3,4.1,0.8,4.1,0.8l0.3,0.1l-0.5,0.2c0,0-2.6,1.6-5,5c-2.4,3.4,0.3,6.7,0.3,6.7s1.9,2.2,6.5,4.4c1.9,0.9,2.9,1.3,2.9,1.3
		s-5.3,1.7-5.3,5.9c0.1,3.8,7.3,7.9,7.3,7.9s-5.4,2.7-5.3,8c0,5.3,5.9,9.7,7,10.7c-2.4,2-3.4,4.4-3.2,7c0.1,2.6,2.7,4.9,2.7,4.9
		l1.8,1.5c0,0,1,0.6,0.5,1.4c-0.5,0.9-1.5,2.1-1.4,4.8c0.1,1.8,0.9,2.9,1.5,3.4c0.3,0.3,0.8,0.8,0.8,1.2v5.8c0,1,0.8,1.5,1.6,1.7v0
		c0,0,0.6,0.1,1.3,0c0,0,0,0,0.1,0c0,0,0,0,0,0l0,0c0.7-0.1,1.4-0.7,1.4-1.7l0.1-5.8c0-0.4,0.5-0.9,0.8-1.2c0.5-0.5,1.3-1.6,1.4-3.4
		c0.1-2.7-1.1-3.9-1.6-4.7c-0.5-0.9,0.5-1.4,0.5-1.4l1.8-1.5c0,0,2.8-2.3,2.9-4.9c0.1-2.6-0.8-5-3.2-7.1c1.1-1,6.7-5.3,6.7-10.6
		c0-5.3-5.6-7.9-5.6-7.9s7.6-4.2,7.7-8c0-4.2-5.4-5.9-5.4-5.9s0.9-0.4,2.9-1.3c4.5-2.2,6.5-4.4,6.5-4.4s3.3-3.4,0.9-6.8
		c-2.4-3.4-5-5-5-5l-0.4-0.3c0,0,2.1,0.5,4.1-0.8c2.3,1.1,4,0.7,4,0.7s1.6-0.1,3.1-1.5c2.4,0.6,3.2,0.4,3.2,0.4s2.5-0.4,3.2-2
		c1.2,0.5,2.6,0.5,2.6,0.5s3.8-0.2,5.8-2.6c3.1,0.1,4.8-0.6,4.8-0.6s4.3-2.1,3.9-3.7c1.7,0.1,3.9-0.4,3.9-0.4s4.2-0.9,5-3.8
		c4.6-0.6,7.3-3,7.3-3S156.4,58.6,155.7,56.9z M84.8,74.5c0.1-0.1,0.3,0,0.3,0.1l0.1,3.2c0,0.2-0.2,0.3-0.4,0.2
		c-0.4-0.4-1.3-1.2-2.2-1.1C83.6,76,84.4,75,84.8,74.5z M77.5,85.5c0-0.8,2.2-0.4,4.1-1.2c2.1-0.9,2.2-1.4,3.2-2
		c0.3-0.2,0.6,0,0.6,0.3l0.2,7.9C85.5,90.5,77.3,86.5,77.5,85.5z M83.9,100.9l1.4-0.8c0.3-0.2,0.7,0,0.8,0.4v2.8
		c0,0.3-0.4,0.5-0.7,0.3l-1.7-1.5C83.4,101.7,83.5,101.2,83.9,100.9z M86.3,120.5c0,0.2-0.2,0.3-0.4,0.2c-0.7-0.5-2-1.7-2-2.8
		c0-1,1.1-2.1,1.8-2.5c0.2-0.2,0.6,0,0.6,0.3L86.3,120.5z M93.1,74.7c0-0.2,0.2-0.2,0.3-0.1c0.4,0.5,1.2,1.5,2.2,2.3
		c-0.9-0.1-1.8,0.8-2.2,1.1c-0.1,0.1-0.4,0-0.4-0.2L93.1,74.7z M92.1,120.7c-0.2,0.1-0.4,0-0.4-0.2l0-4.8c0-0.3,0.3-0.5,0.6-0.3
		c0.6,0.4,1.8,1.5,1.8,2.5C94.1,119,92.8,120.2,92.1,120.7z M94.5,102.1l-1.7,1.5c-0.2,0.2-0.7,0.1-0.7-0.3v-2.8
		c0-0.4,0.4-0.6,0.8-0.4l1.4,0.8C94.7,101.2,94.8,101.7,94.5,102.1z M92.5,90.5l0.2-7.9c0-0.3,0.3-0.5,0.6-0.3
		c0.9,0.6,1.1,1.1,3.2,2c1.8,0.8,4.1,0.4,4.1,1.2C100.7,86.5,92.5,90.5,92.5,90.5z"/>
	<path fill="#F7F7F7" d="M84.3,80.1c0,0,0-2.8-5-2.2c-3.7,0.6-6.3,4-6.3,4s-2.2,2.2-2.1,4.1c0.1,1.9,2.3,3.7,2.3,3.7
		s2.7,2.3,5.2,3.5s5.2,2.1,5.2,2.1l2.9-1.2v-2.2c0,0-2.4-0.7-4.1-1.7c-1.7-1-3.5-1.8-5.5-3.2s-0.6-2.9-0.6-2.9s1.7,0.2,3.2-0.2
		c1.4-0.4,2.6-1.1,3.2-1.5s1.3-1,1.3-1.5C84.4,80.5,84.3,80.1,84.3,80.1z"/>
	<path fill="#F7F7F7" d="M86.8,106c0,0-2.5-1.8-3.6-3c-1.1-1.2-0.7-2.3-0.7-2.3s-0.2-0.6,3.1-1.9c3.3-1.3,9.5-3.6,9.5-3.6
		s5.9-2.2,8.4-4.2c2.6-2,4-3.4,3.9-5.5s-2.8-3.8-3-4.1c-0.3-0.3-1.6-2.8-4.8-3.6c-3.1-0.7-5.2,0.5-5.2,0.5s-1.9,1.1-0.4,2.8
		c0,0,0.2,1.2,2.1,2s3,0.9,3,0.9s1.8-0.1,2.2,0.2s1.1,1.1,0.5,1.9c-0.6,0.8-2.1,2.1-4.9,3.5c-2.9,1.4-14.7,6.2-14.7,6.2
		s-5.8,1.9-5.6,5.6c0.2,3.7,8.8,8,8.8,8l1.7-1.1L86.8,106z"/>
	<path fill="#9C9B9B" d="M85.4,109.2l1.7-1.1l-0.3-2.1c0,0-2.5-1.8-3.6-3c-1.1-1.2-0.7-2.3-0.7-2.3s0-0.2,0.4-0.5c0,0-3.1,0.6-2,3.2
		C81.9,106,85.4,109.2,85.4,109.2z"/>
	<path fill="#F7F7F7" d="M86.1,148.3c0,0,0.7-3.9,3.1-5.6c2.4-1.7,7.1-5.3,6.9-8.3c-0.1-3-4.3-7-4.3-7l-1.6,1.3l0.1,2.5
		c0,0,2.1,1.2,2.2,3.5c0.1,2.3-2.3,4.4-2.3,4.4s-2.7,2.1-3.5,4.6C85.8,146.1,86.1,148.3,86.1,148.3z"/>
	<path fill="#9C9B9B" d="M89.7,139.5c0.3-0.3,0.5-0.4,0.5-0.4s2.4-2.1,2.3-4.4c-0.1-2.3-2.2-3.5-2.2-3.5l-0.1-1.7c0,0,3.6,1.6,2.9,5
		C92.5,137.9,89.7,139.5,89.7,139.5z"/>
	<path fill="#F7F7F7" d="M90.3,141.9c0,0,1.7,1,2,3.7c0,2-0.5,2.1-0.5,2.1s0.5-1.4-0.5-2.6c-1-1.3-1-1.4-1-1.4L90.3,141.9z"/>
	<path fill="#F7F7F7" d="M87.8,141.6c0,0-6.1-3.7-5.8-7.4s5.4-7.7,5.4-7.7s7.7-5,7.9-8.5c0-2.5-4.3-4.8-4.3-4.8l-0.2-2.8l2-1.1
		c0,0,3.3,2.1,5.3,4.2c2,2.1,1,5.3,1,5.3s-1.6,4.2-5.2,7.1c0,0-5.3,3.8-6.7,5.2s-1.6,3.2-1.6,3.2s-0.5,1.7,0.8,3.3
		c1.1,1.2,1.2,1.6,1.2,1.6L87.8,141.6z"/>
	<path fill="#F7F7F7" d="M86.2,128.1c0,0-3.5-2.7-5.3-5.4c-1.8-2.7-2.4-3.5-2.4-5.7c0-2.2,1.1-3.7,1.1-3.7s1-1.4,4.5-3.5
		c3.4-2.1,5.6-3.1,7.4-4.2c1.8-1.1,4.6-2.7,4.6-4c0-1.3-2.5-2.3-2.5-2.3l-2.3-0.9l-0.1-1.6l0-0.8l3.2-1.1l0.5,0.5
		c0,0,6.6,2.2,6.7,5.7c0.1,3.4-7.2,7.3-7.2,7.3l-6.6,4.3c0,0-4.9,2.9-4.9,5.5c0,2.6,3.5,4.9,3.5,4.9l1.1,0.7l0.1,3.4L86.2,128.1z"/>
	<path fill="#9C9B9B" d="M86.6,127.7l1-0.7l-0.1-3.4l-1.1-0.7c0,0-3.5-2.2-3.5-4.9c0-1,0.7-2,1.5-2.9c0,0-2.9,1.5-2.5,4.8
		C82.5,123.2,86.6,127.7,86.6,127.7z"/>
	<path fill="#9C9B9B" d="M96,102c-0.1,0.1,0.1-0.3,0.1-0.5c0-1.3-2.5-2.3-2.5-2.3l-2.3-0.9l-0.1-1.6l0-0.8l1.9-0.7
		C93.1,95.3,98.4,99.1,96,102z"/>
	<path fill="#9C9B9B" d="M73,81.9c0,0-1.1,1.1-1.7,2.5c0,0,0.1,2.3,2,4c1.9,1.7,3.3,2,3.3,2s-3-2.3-3.4-4.1
		C72.9,84.7,73,81.9,73,81.9z"/>
	<path fill="#9C9B9B" d="M107,84.1c-0.4-0.8-1.1-1.4-1.6-1.9c0,0,0.2,2.4-0.4,3.6c-0.6,1.2-1.4,2.6-3.2,4.3
		C105.3,89.3,107,84.1,107,84.1z"/>
	<path fill="#9C9B9B" d="M84.7,94.7l2.1-0.8l0-1.9c0,0-2.5-0.7-4.2-1.7c-1.7-1-3.5-1.8-5.5-3.2c-1.5-1-1.1-2.1-0.8-2.6
		c0,0-2,1.7,0.5,4.3S84.7,94.7,84.7,94.7z"/>
	<path fill="#9C9B9B" d="M92.4,109.5c4,3.6,5.8,7.2,2.1,10.6c0.5-0.7,0.8-1.5,0.8-2.1c0-2.5-4.4-4.9-4.4-4.9v-2.8L92.4,109.5"/>
	<path fill="#F7F7F7" d="M86.1,64.2l2,93.3c0,0.3,0.2,0.5,0.5,0.5h0.9c0.3,0,0.5-0.2,0.5-0.5L92,64.2H86.1z"/>
	<path fill="#9C9B9B" d="M93.9,80.8c0,0,1.7,0.7,2.7,0.6c1,0,1.6,0.1,2.6,0.6c-1.9-0.4-1.7-0.2-2.5-0.3c-0.9-0.1-2.5-0.6-2.5-0.6
		L93.9,80.8z"/>
	<path fill="#9C9B9B" d="M84.2,80.8c0,0-1.5,0.7-2.5,0.6c-1,0-1.6,0.1-2.6,0.6c1.9-0.4,1.7-0.2,2.5-0.3c0.9-0.1,2.5-0.6,2.5-0.6
		L84.2,80.8z"/>
	<ellipse fill="#9C9B9B" cx="80.4" cy="80.2" rx="0.9" ry="0.7"/>
	<ellipse fill="#9C9B9B" cx="97.8" cy="80.2" rx="0.9" ry="0.7"/>
	<path fill="#F7F7F7" d="M121.7,54.9c0,0,5.9,0.8,9,1.7c3.1,0.9,10.3,1.7,13.9,1.3c3.6-0.4,8.8-1,9.4-0.7c0.6,0.3,1,1.3-1.9,3.1
		c-2.9,1.8-4,1.9-5.9,2.2c-1.9,0.2-9.3,0.9-15.8-2.7C123.9,56.2,121.7,54.9,121.7,54.9z"/>
	<path fill="#F7F7F7" d="M129,59.6c0,0,3.7,3.1,8.1,3.5c4.4,0.4,7.3,0.1,7.3,0.5c0,0.4-1.5,3.4-7,3.5c-5.6,0-11.6-2.1-14-4.3
		c-2.5-2.1-7.3-3.5-7.3-3.5l6.1-0.8L129,59.6z"/>
	<path fill="#F7F7F7" d="M121.1,62c0,0,3.3,2.8,6.4,3.8c3.1,1,8.5,1.7,7.9,2.5c-0.5,0.7-3,3.1-5.4,3c-2.4-0.1-5.3-1-8.4-3
		c-3.1-2-5.4-4-5.4-4l-10.8-8.4l2.4-0.7L121.1,62z"/>
	<path fill="#9C9B9B" d="M107.9,55.2l13.2,6.7c0,0,3.3,2.8,6.4,3.8c3.1,1,8.5,1.7,7.9,2.5c-0.4,0.5-1.6,1.7-3.1,2.4
		c0,0,2.2-1.6,0.4-1.9s-9-2-14.8-6.6C112.3,57.5,107.9,55.2,107.9,55.2z"/>
	<path fill="#F7F7F7" d="M116,65.3l1.7,0.8c0,0,2.1,2.6,4.9,3.6c2.9,1,4.7,1.5,4.4,2.1c-0.3,0.5-3.1,2.1-4.9,1.9
		c-1.8-0.2-4.1-1-7.3-3.3c-3.2-2.4-3.8-3.9-3.8-3.9L116,65.3z"/>
	<path fill="#F7F7F7" d="M110.3,66.8c0,0,1.7,2.9,4.1,4.5s4.1,2.4,4.1,2.8s-1.4,1.3-2.7,1.2s-3.2-0.8-6.4-3.4
		c-3.2-2.6-4.3-3.9-4.3-3.9L110.3,66.8z"/>
	<path fill="#F7F7F7" d="M105.4,69c0,0,1.5,2.8,3,3.7c1.4,1,2.6,1.9,3.1,2c0.5,0.1,0.9,0.7,0.3,1c-0.6,0.3-2,0.8-3.8,0.2
		s-5.9-3.7-6.6-6c-0.6-2.3,2.5-2.2,2.5-2.2L105.4,69z"/>
	<path fill="#F7F7F7" d="M100.7,69.6c0,0,0.6,2.7,2.2,3.8s2.5,2,2.4,2.3c-0.1,0.3-2,1.6-4.3,0s-3.9-4.4-4.1-5c-0.2-0.6,1.2-2,1.2-2
		L100.7,69.6z"/>
	<path fill="#9C9B9B" d="M126.8,55.7c-1.3-0.5,2.8,0.5,3.9,0.8c3.1,0.9,10.3,1.7,13.9,1.3c3.6-0.4,8.8-1,9.4-0.7
		c0.5,0.2,0.8,1-0.5,2.2c0,0,1.3-1.1-2.7-0.8C146.8,58.8,138.4,60.5,126.8,55.7z"/>
	<path fill="#9C9B9B" d="M126.1,59.1l2.8,0.5c0,0,3.7,3.1,8.1,3.5c4.4,0.4,7.3,0.1,7.3,0.5c0,0.2-0.6,1.7-2.7,2.6c0,0,2-1.5,0-1.4
		C139.7,64.9,133.4,64.1,126.1,59.1z"/>
	<path fill="#9C9B9B" d="M116,65.3l1.7,0.8c0,0,2.1,2.6,4.9,3.6c2.9,1,4.7,1.5,4.4,2.1c-0.2,0.4-1.7,1.3-3.3,1.7c0,0,2.3-1,0.5-1.5
		c-1.8-0.5-8.4-3.7-11.8-8c-3.5-4.3,1.7,0,1.7,0L116,65.3z"/>
	<path fill="#9C9B9B" d="M107.9,65.3l2.4,1.5c0,0,1.7,2.9,4.1,4.5s4.1,2.4,4.1,2.8s-1.4,1.3-2.7,1.2c-0.1,0-0.3,0-0.4,0
		c0,0,2.5-0.3,0.9-1.3c-1.6-1-9.1-7.1-10.1-8.7C105.2,63.6,107.9,65.3,107.9,65.3z"/>
	<path fill="#9C9B9B" d="M103.8,67.8l1.6,1.1c0,0,1.5,2.8,3,3.7c1.4,1,2.6,1.9,3.1,2c0.5,0.1,0.9,0.7,0.3,1
		c-0.3,0.2-0.8,0.4-1.6,0.5c0,0,1.2-0.3,0.1-0.9C109.2,74.6,106.5,73.2,103.8,67.8z"/>
	<path fill="#9C9B9B" d="M99.4,69.3l1.2,0.4c0,0,0.6,2.7,2.2,3.8s2.5,2,2.4,2.3c0,0.2-1,0.9-2.4,0.7c0,0,1.4-0.3,0.4-1.2
		C102.4,74.3,100,72.7,99.4,69.3z"/>
	<path fill="#F7F7F7" d="M96.1,70.6c0,0,0.3,1.7,1.5,2.8s2.4,2.2,2.1,2.5c-0.3,0.4-0.9,0.7-2.5,0.2c-1.6-0.5-3.3-3-3.6-4
		c-0.3-0.9-1.2-3.3-1.2-4.7c0.9-1,2.9-0.5,2.9-0.5L96.1,70.6z"/>
	<path fill="#9C9B9B" d="M95.3,67l0.8,3.6c0,0,0.3,1.7,1.5,2.8s2.4,2.2,2.1,2.5c-0.3,0.4-0.9,0.7-2.5,0.2c0,0,1.8,0,0.8-0.9
		S93.8,70.7,95.3,67z"/>
	<path fill="#898989" d="M124.2,54.9c0.8,0.1,5.4,1.4,6.4,1.7c0.9,0.2,2.2,0.5,3.6,0.7c0,0,1.2,0.5-0.9,2c-2.1,1.5-5.1,0.5-5.1,0.5
		s3.9,1.2,2,2.3c-1.9,1.1-4.1,1.7-7.3,0.9s2.7,0.8,1.7,2c-1,1.2-3.1,1.7-5.7,0.5c-2.6-1.2-1.6,0-1.6,0s1.6,1.8-0.3,2.5
		c-1.9,0.8-4.4,0.1-5.9-0.8c0.9,1.8,0.2,2.2-0.5,2.6c-0.7,0.4-2.8,0-3.7-1.1c-0.9-1-1.9,0.2-1.9,0.2s1.6,1.4,0.3,2.3
		s-4.4-1.4-4.4-1.4s0.6,1.9-1.2,2.1s-3.5-1.8-3.5-1.8s0.4,1.7-0.8,1.8c-1.2,0.1-2.1-0.3-2.4-1.3c-0.3-1-0.7-2.5-0.7-3.2
		c0-0.7,2.7-1,2.7-1l6.2-2.4l1.9-4.3l2.4-4.9l9.3-0.6l6.2,0.4L124.2,54.9z"/>
	<path fill="#F7F7F7" d="M121.8,55.2c0,0,3.3,2.3,6.7,2.5c3.4,0.2,4.1,0.1,3.9,0.5c-0.2,0.4-2.7,2.4-6.8,1.9c-4.1-0.4-8.9-3-10.8-5
		C118.6,54.6,121.8,55.2,121.8,55.2z"/>
	<path fill="#F7F7F7" d="M114.3,55.6c0,0,2,3.1,5.7,4.5c3.7,1.4,5.1,1.2,5.1,1.2s1.5-0.2,1.3,0.9c-0.2,1.1-3.6,2.6-9.1,0.2
		c-5.5-2.4-9.6-6.3-9.6-6.3l4-0.8L114.3,55.6z"/>
	<path fill="#F7F7F7" d="M107.7,56.4c0,0,2.5,3.2,5.8,5c3.2,1.8,6.4,2.4,6.8,3.2c0.4,0.8-2,1.7-2,1.7s-4.3,0.2-8.5-3.6
		c-4.2-3.9-4.8-4.6-4.8-4.6L107.7,56.4z"/>
	<path fill="#F7F7F7" d="M105,59.3c0,0,2.6,3.2,4.6,4.4c2,1.2,4.3,2,4.8,2.7s-1.5,2-4.1,1c-2.6-1-6.1-3.6-6.8-4.5
		C102.8,62.1,105,59.3,105,59.3z"/>
	<path fill="#F7F7F7" d="M103.8,63.5c0,0,1.5,2.1,3.2,3.3c1.7,1.3,2.2,1.7,1.7,2.1c-0.4,0.5-2.7,1.2-4.9-0.4
		c-2.2-1.6-2.9-3.4-2.9-3.4l1.7-1.5L103.8,63.5z"/>
	<path fill="#F7F7F7" d="M100.3,65.4c0,0,0.2,1.3,1.2,2.4s1.9,1.7,1.6,2.1c-0.3,0.4-2.2,1.5-4.9-1.5
		C95.4,65.4,100.3,65.4,100.3,65.4z"/>
	<path fill="#9C9B9B" d="M118.6,55c1.9,0,3.3,0.3,3.3,0.3s3.3,2.3,6.7,2.5c3.4,0.2,4.1,0.1,3.9,0.5c-0.1,0.2-1,1-2.6,1.5
		c0,0,2-1,0-1.1c-2,0-5.4-1.2-6.7-2.1S118.6,55,118.6,55z"/>
	<path fill="#9C9B9B" d="M111.7,55.1l2.5,0.4c0,0,2,3.1,5.7,4.5c3.7,1.4,5.1,1.2,5.1,1.2s1.5-0.2,1.3,0.9c-0.1,0.5-1,1.2-2.6,1.4
		c0,0,1.5-1.1,0.5-1.2c-1-0.2-4.5-1.3-6.5-2.5C115.8,58.6,112.9,55.3,111.7,55.1z"/>
	<path fill="#9C9B9B" d="M107.7,56.4c0,0,2.5,3.2,5.8,5c3.2,1.8,6.4,2.4,6.8,3.2c0.4,0.8-2,1.7-2,1.7s1.7-1.1,0.8-1.3
		c-1.2-0.2-4.8-2.2-6.3-3.1S107.7,58,107.7,56.4z"/>
	<path fill="#9C9B9B" d="M105,59.3c0,0,2.6,3.2,4.6,4.4c2,1.2,4.3,2,4.8,2.7c0.4,0.5-0.8,1.5-2.6,1.3c0,0,2.4-0.5,1.5-1
		s-3.1-1.5-5.4-3.6C105.6,61,105,59.3,105,59.3z"/>
	<path fill="#9C9B9B" d="M103.8,63.5c0,0,1.5,2.1,3.2,3.3c1.7,1.3,2.2,1.7,1.7,2.1c-0.2,0.3-1.1,0.6-2.2,0.6c0,0,2.2-0.5,1.7-0.9
		c-0.6-0.4-1.1-0.9-2.2-2.1C104.5,64.8,103.8,63.5,103.8,63.5z"/>
	<path fill="#9C9B9B" d="M99.7,65.4c0.4,0,0.6,0,0.6,0s0.2,1.3,1.2,2.4s1.9,1.7,1.6,2.1c-0.2,0.2-0.8,0.7-1.9,0.5
		c0,0,1.4-0.3,1.1-0.6c-0.3-0.4-1-1.1-1.7-2.5C100,65.9,99.7,65.4,99.7,65.4z"/>
	<path fill="#1D1D1B" d="M118.6,55c1.9,0,3.3,0.3,3.3,0.3s3.3,2.3,6.7,2.5c3.4,0.2,4.1,0.1,3.9,0.5c-0.1,0.2-1,1-2.6,1.5
		c0,0,3.2-1.6,2-1.5s-5.7,0.2-10.1-2.7C120.3,55.2,118.6,55,118.6,55z"/>
	<path fill="#1D1D1B" d="M111.7,55.1l2.5,0.4c0,0,2,3.1,5.7,4.5c3.7,1.4,5.1,1.2,5.1,1.2s1.5-0.2,1.3,0.9c-0.1,0.5-1,1.2-2.6,1.4
		c0,0,3.4-1.8,1.7-1.8c-1.3,0-2.7,0-5.6-1.4s-3.7-2.1-5.8-4.3C112.2,55.3,111.7,55.1,111.7,55.1z"/>
	<path fill="#1D1D1B" d="M107.7,56.4c0,0,2.5,3.2,5.8,5c3.2,1.8,6.4,2.4,6.8,3.2c0.4,0.8-2,1.7-2,1.7s2.2-1.2,1.5-1.5
		c-0.7-0.3-2.1-0.6-6.5-3C109,59.2,108.1,57.1,107.7,56.4z"/>
	<path fill="#1D1D1B" d="M105,59.3c0,0,2.6,3.2,4.6,4.4c2,1.2,4.3,2,4.8,2.7c0.4,0.5-0.8,1.5-2.6,1.3c0,0,3-0.6,2.1-1.2
		c-1-0.6-2-1-4.1-2.4C107.6,62.9,105,59.3,105,59.3z"/>
	<path fill="#1D1D1B" d="M103.8,63.5c0,0,1.5,2.1,3.2,3.3c1.7,1.3,2.2,1.7,1.7,2.1c-0.2,0.3-1.1,0.6-2.2,0.6c0,0,2.8-0.4,1.8-1.1
		C107.4,67.7,104.8,65.6,103.8,63.5z"/>
	<path fill="#1D1D1B" d="M99.7,65.4c0.4,0,0.6,0,0.6,0s0.2,1.3,1.2,2.4s1.9,1.7,1.6,2.1c-0.2,0.2-0.8,0.7-1.9,0.5
		c0,0,1.9-0.2,1.5-0.7c-0.5-0.6-2-2-2.6-4.1L99.7,65.4z"/>
	<path fill="#F7F7F7" d="M91.8,65.7c0,0,4.4,0.3,7.1-1.2c2.5-1.3,2.1-4.3,2.1-4.3s-0.5-5.1,1-6.4c1.7-1.4,3.4-1.7,6.3-1.8
		c2.9-0.1,11.4,0.8,18.8,3.1c1.8,0.6,2.7,0.9,2.7,0.9s-7.2-0.7-13.2-0.5c-6.1,0.3-7.1,0.2-9.7,2c-2.6,1.8-1.5,3.7-2.2,4.9
		s-1.1,2.5-5.6,3.6c-4.6,1.1-7.6,1-7.6,1L91.8,65.7z"/>
	<path d="M93.5,67.1c1.3-0.1,3.3-0.4,5.6-0.9c4.6-1.1,4.9-2.4,5.6-3.6s-0.4-3.1,2.2-4.9c2.6-1.8,3.6-1.8,9.7-2
		c6.1-0.3,13.2,0.5,13.2,0.5s-7.9-0.9-13.3-0.8c-5.3,0.1-7.6,0.3-9.9,2.1c-2.4,1.8-1.6,3.9-2.3,5s-0.6,2.2-5.3,3.5
		C96.5,66.6,93.5,67.1,93.5,67.1z"/>
	<path fill="#F7F7F7" d="M56.9,55.2c0,0-5.9,0.8-9,1.7c-3.1,0.9-10.3,1.7-13.9,1.3c-3.6-0.4-8.8-1-9.4-0.7s-1,1.3,1.9,3.1
		c2.9,1.8,4,1.9,5.9,2.2s9.3,0.9,15.8-2.7C54.7,56.4,56.9,55.2,56.9,55.2z"/>
	<path fill="#F7F7F7" d="M49.6,59.9c0,0-3.7,3.1-8.1,3.5s-7.3,0.1-7.3,0.5c0,0.4,1.5,3.4,7,3.5s11.6-2.1,14-4.3
		c2.5-2.1,7.3-3.5,7.3-3.5l-6.1-0.8L49.6,59.9z"/>
	<path fill="#F7F7F7" d="M57.5,62.3c0,0-3.3,2.8-6.4,3.8c-3.1,1-8.5,1.7-7.9,2.5c0.5,0.7,3,3.1,5.4,3c2.4-0.1,5.3-1,8.4-3
		c3.1-2,5.4-4,5.4-4l10.8-8.4l-2.4-0.7L57.5,62.3z"/>
	<path fill="#9C9B9B" d="M70.7,55.5l-13.2,6.7c0,0-3.3,2.8-6.4,3.8c-3.1,1-8.5,1.7-7.9,2.5c0.4,0.5,1.6,1.7,3.1,2.4
		c0,0-2.2-1.6-0.4-1.9c1.7-0.3,9-2,14.8-6.6S70.7,55.5,70.7,55.5z"/>
	<path fill="#F7F7F7" d="M62.5,65.5l-1.7,0.8c0,0-2.1,2.6-4.9,3.6c-2.9,1-4.7,1.5-4.4,2.1s3.1,2.1,4.9,1.9c1.8-0.2,4.1-1,7.3-3.3
		c3.2-2.4,3.8-3.9,3.8-3.9L62.5,65.5z"/>
	<path fill="#F7F7F7" d="M68.3,67.1c0,0-1.7,2.9-4.1,4.5c-2.4,1.6-4.1,2.4-4.1,2.8s1.4,1.3,2.7,1.2c1.3-0.1,3.2-0.8,6.4-3.4
		c3.2-2.6,4.3-3.9,4.3-3.9L68.3,67.1z"/>
	<path fill="#F7F7F7" d="M73.2,69.2c0,0-1.5,2.8-3,3.7c-1.4,1-2.6,1.9-3.1,2c-0.5,0.1-0.9,0.7-0.3,1c0.6,0.3,2,0.8,3.8,0.2
		c1.9-0.5,5.9-3.7,6.6-6s-2.5-2.2-2.5-2.2L73.2,69.2z"/>
	<path fill="#F7F7F7" d="M77.9,69.9c0,0-0.6,2.7-2.2,3.8c-1.5,1.2-2.5,2-2.4,2.3c0.1,0.3,2,1.6,4.3,0c2.2-1.6,3.9-4.4,4.1-5
		c0.2-0.6-1.2-2-1.2-2L77.9,69.9z"/>
	<path fill="#9C9B9B" d="M51.8,56c1.3-0.5-2.8,0.5-3.9,0.8c-3.1,0.9-10.3,1.7-13.9,1.3c-3.6-0.4-8.8-1-9.4-0.7
		c-0.5,0.2-0.8,1,0.5,2.2c0,0-1.3-1.1,2.7-0.8S40.2,60.8,51.8,56z"/>
	<path fill="#9C9B9B" d="M52.5,59.4l-2.8,0.5c0,0-3.7,3.1-8.1,3.5s-7.3,0.1-7.3,0.5c0,0.2,0.6,1.7,2.7,2.6c0,0-2-1.5,0-1.4
		C38.9,65.2,45.2,64.3,52.5,59.4z"/>
	<path fill="#9C9B9B" d="M62.5,65.5l-1.7,0.8c0,0-2.1,2.6-4.9,3.6c-2.9,1-4.7,1.5-4.4,2.1c0.2,0.4,1.7,1.3,3.3,1.7
		c0,0-2.3-1-0.5-1.5s8.4-3.7,11.8-8c3.5-4.3-1.7,0-1.7,0L62.5,65.5z"/>
	<path fill="#9C9B9B" d="M70.7,65.5l-2.4,1.5c0,0-1.7,2.9-4.1,4.5c-2.4,1.6-4.1,2.4-4.1,2.8s1.4,1.3,2.7,1.2c0.1,0,0.3,0,0.4,0
		c0,0-2.5-0.3-0.9-1.3c1.6-1,9.1-7.1,10.1-8.7C73.4,63.9,70.7,65.5,70.7,65.5z"/>
	<path fill="#9C9B9B" d="M74.8,68.1l-1.6,1.1c0,0-1.5,2.8-3,3.7c-1.4,1-2.6,1.9-3.1,2c-0.5,0.1-0.9,0.7-0.3,1
		c0.3,0.2,0.8,0.4,1.6,0.5c0,0-1.2-0.3-0.1-0.9C69.4,74.9,72.1,73.5,74.8,68.1z"/>
	<path fill="#9C9B9B" d="M79.1,69.5l-1.2,0.4c0,0-0.6,2.7-2.2,3.8c-1.5,1.2-2.5,2-2.4,2.3c0,0.2,1,0.9,2.4,0.7c0,0-1.4-0.3-0.4-1.2
		C76.2,74.6,78.5,73,79.1,69.5z"/>
	<path fill="#F7F7F7" d="M82.5,70.9c0,0-0.3,1.7-1.5,2.8s-2.4,2.2-2.1,2.5c0.3,0.4,0.9,0.7,2.5,0.2c1.6-0.5,3.3-3,3.6-4
		c0.3-0.9,1.2-3.3,1.2-4.7c-0.9-1-2.9-0.5-2.9-0.5L82.5,70.9z"/>
	<path fill="#9C9B9B" d="M83.3,67.3l-0.8,3.6c0,0-0.3,1.7-1.5,2.8s-2.4,2.2-2.1,2.5c0.3,0.4,0.9,0.7,2.5,0.2c0,0-1.8,0-0.8-0.9
		C81.5,74.6,84.7,70.9,83.3,67.3z"/>
	<path fill="#898989" d="M54.4,55.2c-0.8,0.1-5.4,1.4-6.4,1.7c-0.9,0.2-2.2,0.5-3.6,0.7c0,0-1.2,0.5,0.9,2c2.1,1.5,5.1,0.5,5.1,0.5
		s-3.9,1.2-2,2.3s4.1,1.7,7.3,0.9c3.1-0.8-2.7,0.8-1.7,2c1,1.2,3.1,1.7,5.7,0.5c2.6-1.2,1.6,0,1.6,0s-1.6,1.8,0.3,2.5
		s4.4,0.1,5.9-0.8c-0.9,1.8-0.2,2.2,0.5,2.6s2.8,0,3.7-1.1s1.9,0.2,1.9,0.2s-1.6,1.4-0.3,2.3c1.3,0.9,4.4-1.4,4.4-1.4
		s-0.6,1.9,1.2,2.1s3.5-1.8,3.5-1.8s-0.4,1.7,0.8,1.8c1.2,0.1,2.1-0.3,2.4-1.3c0.3-1,0.7-2.5,0.7-3.2c0-0.7-2.7-1-2.7-1l-6.2-2.4
		l-1.9-4.3l-2.4-4.9l-9.3-0.6L57.6,55L54.4,55.2z"/>
	<path fill="#F7F7F7" d="M56.7,55.5c0,0-3.3,2.3-6.7,2.5c-3.4,0.2-4.1,0.1-3.9,0.5c0.2,0.4,2.7,2.4,6.8,1.9c4.1-0.4,8.9-3,10.8-5
		C60,54.9,56.7,55.5,56.7,55.5z"/>
	<path fill="#F7F7F7" d="M64.3,55.8c0,0-2,3.1-5.7,4.5c-3.7,1.4-5.1,1.2-5.1,1.2s-1.5-0.2-1.3,0.9c0.2,1.1,3.6,2.6,9.1,0.2
		s9.6-6.3,9.6-6.3l-4-0.8L64.3,55.8z"/>
	<path fill="#F7F7F7" d="M70.9,56.6c0,0-2.5,3.2-5.8,5c-3.2,1.8-6.4,2.4-6.8,3.2c-0.4,0.8,2,1.7,2,1.7s4.3,0.2,8.5-3.6
		c4.2-3.9,4.8-4.6,4.8-4.6L70.9,56.6z"/>
	<path fill="#F7F7F7" d="M73.6,59.6c0,0-2.6,3.2-4.6,4.4c-2,1.2-4.3,2-4.8,2.7c-0.5,0.7,1.5,2,4.1,1c2.6-1,6.1-3.6,6.8-4.5
		C75.8,62.4,73.6,59.6,73.6,59.6z"/>
	<path fill="#F7F7F7" d="M74.8,63.8c0,0-1.5,2.1-3.2,3.3c-1.7,1.3-2.2,1.7-1.7,2.1c0.4,0.5,2.7,1.2,4.9-0.4c2.2-1.6,2.9-3.4,2.9-3.4
		L76,63.9L74.8,63.8z"/>
	<path fill="#F7F7F7" d="M78.2,65.7c0,0-0.2,1.3-1.2,2.4c-1,1.2-1.9,1.7-1.6,2.1c0.3,0.4,2.2,1.5,4.9-1.5S78.2,65.7,78.2,65.7z"/>
	<path fill="#F7F7F7" d="M81.9,66.8c0,0,0.5,1-0.2,1.9c-0.7,1-1.6,1.6-0.8,2.3c0.9,0.6,2.1-0.1,3.2-1.5c1.1-1.4,1.1-2.7,1.1-2.7
		H81.9z"/>
	<path fill="#9C9B9B" d="M60,55.2c-1.9,0-3.3,0.3-3.3,0.3S53.4,57.8,50,58c-3.4,0.2-4.1,0.1-3.9,0.5c0.1,0.2,1,1,2.6,1.5
		c0,0-2-1,0-1.1c2,0,5.4-1.2,6.7-2.1C56.6,56.1,60,55.2,60,55.2z"/>
	<path fill="#9C9B9B" d="M66.9,55.4l-2.5,0.4c0,0-2,3.1-5.7,4.5c-3.7,1.4-5.1,1.2-5.1,1.2s-1.5-0.2-1.3,0.9c0.1,0.5,1,1.2,2.6,1.4
		c0,0-1.5-1.1-0.5-1.2c1-0.2,4.5-1.3,6.5-2.5C62.8,58.9,65.7,55.6,66.9,55.4z"/>
	<path fill="#9C9B9B" d="M70.9,56.6c0,0-2.5,3.2-5.8,5c-3.2,1.8-6.4,2.4-6.8,3.2c-0.4,0.8,2,1.7,2,1.7s-1.7-1.1-0.8-1.3
		c1.2-0.2,4.8-2.2,6.3-3.1C67.4,61.2,70.8,58.2,70.9,56.6z"/>
	<path fill="#9C9B9B" d="M73.6,59.6c0,0-2.6,3.2-4.6,4.4c-2,1.2-4.3,2-4.8,2.7c-0.4,0.5,0.8,1.5,2.6,1.3c0,0-2.4-0.5-1.5-1
		c0.9-0.5,3.1-1.5,5.4-3.6C72.9,61.3,73.6,59.6,73.6,59.6z"/>
	<path fill="#9C9B9B" d="M74.8,63.8c0,0-1.5,2.1-3.2,3.3c-1.7,1.3-2.2,1.7-1.7,2.1c0.2,0.3,1.1,0.6,2.2,0.6c0,0-2.2-0.5-1.7-0.9
		s1.1-0.9,2.2-2.1C74.1,65.1,74.8,63.8,74.8,63.8z"/>
	<path fill="#9C9B9B" d="M78.8,65.7c-0.4,0-0.6,0-0.6,0s-0.2,1.3-1.2,2.4c-1,1.2-1.9,1.7-1.6,2.1c0.2,0.2,0.8,0.7,1.9,0.5
		c0,0-1.4-0.3-1.1-0.6c0.3-0.4,1-1.1,1.7-2.5C78.5,66.2,78.8,65.7,78.8,65.7z"/>
	<path fill="#9C9B9B" d="M82.5,66.8h-0.6c0,0,0.5,1-0.2,1.9c-0.7,1-1.6,1.6-0.8,2.3c0.2,0.2,0.5,0.2,0.8,0.2c0,0-0.8-0.3-0.4-0.8
		C81.7,70,82.7,68.8,82.5,66.8z"/>
	<path fill="#1D1D1B" d="M60,55.2c-1.9,0-3.3,0.3-3.3,0.3S53.4,57.8,50,58c-3.4,0.2-4.1,0.1-3.9,0.5c0.1,0.2,1,1,2.6,1.5
		c0,0-3.2-1.6-2-1.5c1.2,0.1,5.7,0.2,10.1-2.7C58.3,55.4,60,55.2,60,55.2z"/>
	<path fill="#1D1D1B" d="M66.9,55.4l-2.5,0.4c0,0-2,3.1-5.7,4.5c-3.7,1.4-5.1,1.2-5.1,1.2s-1.5-0.2-1.3,0.9c0.1,0.5,1,1.2,2.6,1.4
		c0,0-3.4-1.8-1.7-1.8c1.3,0,2.7,0,5.6-1.4s3.7-2.1,5.8-4.3C66.4,55.6,66.9,55.4,66.9,55.4z"/>
	<path fill="#1D1D1B" d="M70.9,56.6c0,0-2.5,3.2-5.8,5c-3.2,1.8-6.4,2.4-6.8,3.2c-0.4,0.8,2,1.7,2,1.7s-2.2-1.2-1.5-1.5
		c0.7-0.3,2.1-0.6,6.5-3S70.5,57.3,70.9,56.6z"/>
	<path fill="#1D1D1B" d="M73.6,59.6c0,0-2.6,3.2-4.6,4.4c-2,1.2-4.3,2-4.8,2.7c-0.4,0.5,0.8,1.5,2.6,1.3c0,0-3-0.6-2.1-1.2
		c1-0.6,2-1,4.1-2.4C71,63.2,73.6,59.6,73.6,59.6z"/>
	<path fill="#1D1D1B" d="M74.8,63.8c0,0-1.5,2.1-3.2,3.3c-1.7,1.3-2.2,1.7-1.7,2.1c0.2,0.3,1.1,0.6,2.2,0.6c0,0-2.8-0.4-1.8-1.1
		C71.1,68,73.8,65.8,74.8,63.8z"/>
	<path fill="#1D1D1B" d="M78.8,65.7c-0.4,0-0.6,0-0.6,0s-0.2,1.3-1.2,2.4c-1,1.2-1.9,1.7-1.6,2.1c0.2,0.2,0.8,0.7,1.9,0.5
		c0,0-1.9-0.2-1.5-0.7c0.5-0.6,2-2,2.6-4.1L78.8,65.7z"/>
	<path fill="#1D1D1B" d="M82.5,66.8h-0.6c0,0,0.5,1-0.2,1.9c-0.7,1-1.6,1.6-0.8,2.3c0.2,0.2,0.5,0.2,0.8,0.2c0,0-1.2-0.5-0.8-0.9
		c0.3-0.4,0.9-0.9,1.1-1.4s0.4-1,0.3-1.9C82.4,66.9,82.5,66.8,82.5,66.8z"/>
	<path fill="#F7F7F7" d="M86.8,66c0,0-4.4,0.3-7.1-1.2c-2.5-1.3-2.1-4.3-2.1-4.3s0.5-5.1-1-6.4c-1.7-1.4-3.4-1.7-6.3-1.8
		c-2.9-0.1-11.4,0.8-18.8,3.1c-1.8,0.6-2.7,0.9-2.7,0.9s7.2-0.7,13.2-0.5c6.1,0.3,7.1,0.2,9.7,2c2.6,1.8,1.5,3.7,2.2,4.9
		c0.7,1.3,1.1,2.5,5.6,3.6s7.6,1,7.6,1L86.8,66z"/>
	<path d="M85.1,67.4c-1.3-0.1-3.3-0.4-5.6-0.9c-4.6-1.1-4.9-2.4-5.6-3.6c-0.7-1.3,0.4-3.1-2.2-4.9c-2.6-1.8-3.6-1.8-9.7-2
		c-6.1-0.3-13.2,0.5-13.2,0.5s7.9-0.9,13.3-0.8s7.6,0.3,9.9,2.1c2.4,1.8,1.6,3.9,2.3,5c0.7,1.1,0.6,2.2,5.3,3.5
		C82.1,66.9,85.1,67.4,85.1,67.4z"/>
	<path fill="#F7F7F7" d="M96.6,66.5c0,0-0.5,1,0.2,1.9c0.7,1,1.6,1.6,0.8,2.3c-0.9,0.6-2.1-0.1-3.2-1.5c-1.1-1.4-1.1-2.7-1.1-2.7
		H96.6z"/>
	<path fill="#9C9B9B" d="M96,66.5h0.6c0,0-0.5,1,0.2,1.9c0.7,1,1.6,1.6,0.8,2.3c-0.2,0.2-0.5,0.2-0.8,0.2c0,0,0.8-0.3,0.4-0.8
		C96.9,69.7,95.9,68.5,96,66.5z"/>
	<path fill="#1D1D1B" d="M96,66.5h0.6c0,0-0.5,1,0.2,1.9c0.7,1,1.6,1.6,0.8,2.3c-0.2,0.2-0.5,0.2-0.8,0.2c0,0,1.2-0.5,0.8-0.9
		s-0.9-0.9-1.1-1.4c-0.2-0.5-0.4-1-0.3-1.9C96.2,66.6,96,66.5,96,66.5z"/>
	<circle fill="#F7F7F7" cx="89.1" cy="50.4" r="6.1"/>
	<path fill="#9C9B9B" d="M83.5,51.8c0.9,1.2,2.3,2,3.8,2c2.6,0,4.7-2.1,4.7-4.7c0-1.7-0.9-3.2-2.2-4l0,0c0.4,0.1,0.7,0.2,1,0.3
		c2,0.8,3.5,2.8,3.5,5.1c0,3-2.5,5.5-5.5,5.5C86.2,55.9,84.1,54.2,83.5,51.8L83.5,51.8z"/>
	<rect x="85.7" y="60.2" fill="#9C9B9B" width="6.6" height="2.5"/>
	<path fill="#F7F7F7" d="M94.1,60.5H83.9c-1.1,0-1.9-0.9-1.9-1.9v0c0-1.1,0.9-1.9,1.9-1.9h10.2c1.1,0,1.9,0.9,1.9,1.9v0
		C96,59.7,95.2,60.5,94.1,60.5z"/>
	<path fill="#F7F7F7" d="M93.6,64.5h-8.9c-0.7,0-1.3-0.6-1.3-1.3v0c0-0.7,0.6-1.3,1.3-1.3h8.9c0.7,0,1.3,0.6,1.3,1.3v0
		C94.9,63.9,94.3,64.5,93.6,64.5z"/>
</g>
<path fill="#0000A0" d="M217.8,77.1c5.5,3.8,13,5.6,22.9,5.6c19.5,0,30.6-8.5,30.6-23.3c0-14.4-13.8-17.9-26.7-19.9
	c-18.3-3.1-24.4-5.3-24.4-12.7c0-7.5,9.2-10.9,18.4-10.9c13.2,0,19.7,4.4,20.5,13.8l0.1,1.3h10l0-1.5c-0.4-14.7-11.6-23.2-30.6-23.2
	c-18.2,0-29.1,8.1-29.1,21.7c0,13.9,12.9,17.8,26.8,20c0.8,0.1,1.6,0.3,2.5,0.4c11.7,1.8,21.8,3.4,21.8,12.2
	c0,5.7-3.5,12.5-19.9,12.5c-15.4,0-22-4.9-23.1-16.9l-0.1-1.3h-10.1l0.1,1.5C208.1,65.8,211.6,72.8,217.8,77.1z"/>
<path fill="#0000A0" d="M300.5,48.4c-8,0.4-26.8,1.2-26.8,17.4c0,11.6,10.7,16.7,21.2,16.7c13.5,0,19.7-4.4,22.8-8
	c0.6,3.2,2.5,6.8,9,6.8c2.3,0,4.6-0.4,6-0.7l1.5-0.3l0-7.6l-1.5,0.1c-1.3,0.1-2.5,0.2-3.7,0.2c-1.4,0-2.6,0-2.6-4.3V42.1
	c0-11.3-7.9-16.5-24.8-16.5c-16.5,0-24.4,5.7-25.7,18.5l-0.2,1.6h9.6l0.1-1.3c0.4-5.9,3.2-9.8,16-9.8c10,0,15.4,1.4,15.4,8.6
	C317,46.5,317,47.6,300.5,48.4z M317,59.9c0,7-7,14.4-19.8,14.4c-8.8,0-13.3-3-13.3-8.9c0-4.9,3.5-7.2,12-8
	c11.7-1,17.5-1.6,21.1-2.9V59.9z"/>
<path fill="#0000A0" d="M341.3,81h10.1l-0.1-45.5h14.4v-8.3h-14.4v-4.6c0-5.4,1.5-6.1,7-6.1c2.5,0,4.6,0.1,6.6,0.4l1.6,0.2v-9
	l-1.2-0.2c-2.7-0.4-6.4-0.4-8.3-0.4c-10.9,0-15.7,4.4-15.7,14.3v5.3h-11v8.3h11L341.3,81z"/>
<path fill="#0000A0" d="M371.9,73.2c5.1,6.1,13,9.4,22.8,9.4c19.9,0,26.6-11.8,28.8-18.8l0.6-1.9h-10.2l-0.3,1
	c-3,9-9.7,10.8-18.8,10.8c-10.9,0-18.4-6.5-19-16.4h49.2v-1.4c0-27.3-21.1-30.3-30.2-30.3c-21.5,0-29.2,15.3-29.2,28.5
	C365.4,61.4,367.7,68.2,371.9,73.2z M395.1,34.5c4.9,0,16.3,1.4,19.2,14.4h-38.6C377.9,38.3,387,34.5,395.1,34.5z"/>
<path fill="#0000A0" d="M458.9,81.2l1.2-0.2v-9.1l-1.7,0.3c-1.2,0.2-3.2,0.6-6.9,0.6c-5.3,0-5.8-1.6-5.8-5V35.5h9.6h4.8h2.2
	L483.7,80l-3,6.5c-2.1,4.6-4.2,5.4-8.8,5.4c-1.9,0-3.4-0.1-5.1-0.2l-1.5-0.1v8.9l1.3,0.1c1.1,0.1,2.3,0.2,3.6,0.2h3.5
	c8.6,0,12.4-2.6,16.2-11.1l28.6-62.5h-11l-18.3,40.5l-19.8-40.5h-9.1h-1.8h-12.6V11.1h-10.1v16.1h-11v8.3h11v32.2
	c0,8.4,2.6,14.1,15.2,14.1C453.3,81.8,456.2,81.6,458.9,81.2z"/>
<polygon fill="#0000A0" points="285.3,103.4 255,162.6 224.7,103.4 211.8,103.4 211.9,176.2 222,176.2 221.9,119.8 250.7,176.2 
	259.1,176.2 287.8,119.9 287.9,176.2 298,176.2 297.9,103.4 "/>
<polygon fill="#0000A0" points="326.8,117.5 336.4,117.5 353.5,100.7 340.4,100.7 "/>
<path fill="#0000A0" d="M420.8,122.4h-13.4l-16.5,18.7l-16.6-18.7H361l23,25.9l-17.6,19.9h-2.9l-0.1,0c0,0-2.5,0-3.7,0
	c-1.4,0-2.6,0-2.6-4.3v-26.7c0-11.3-7.9-16.5-24.8-16.5c-16.5,0-24.4,5.7-25.7,18.5l-0.2,1.6h9.6l0.1-1.3c0.4-5.9,3.2-9.8,16-9.8
	c10,0,15.4,1.4,15.4,8.6c0,3.4,0,4.5-16.5,5.3c-8,0.4-26.8,1.2-26.8,17.4c0,11.6,10.7,16.7,21.2,16.7c13.5,0,19.7-4.4,22.8-8
	c0.6,3.2,2.5,6.8,9,6.8c1.5,0,2.6,0,4,0h11.2l18.1-20.9l18.4,20.5h13.5l-25.3-27.9L420.8,122.4z M347.7,155.1c0,7-7,14.4-19.8,14.4
	c-8.8,0-13.3-3-13.3-8.9c0-4.9,3.5-7.2,12-8c11.7-1,17.5-1.6,21.1-2.9V155.1z"/>
<rect x="425.4" y="102.8" fill="#0000A0" width="10.1" height="13.6"/>
<polygon fill="#0000A0" points="425.4,122.4 425.5,176.2 435.6,176.2 435.5,122.4 "/>
<path fill="#0000A0" d="M508.6,120.8c-8.8,0-16.1,4.4-19.8,9.4c-3.1-6-9.8-9.4-18.5-9.4c-8.3,0-14.5,2.6-19,8.1v-6.5h-10.1l0.1,53.8
	h10.1l-0.1-30.2c0-10.2,6.2-16.3,16.6-16.3c8.1,0,13.1,4,13.1,10.5l0.1,35.9h10.1l-0.1-31.5c0-9.5,5.8-14.9,15.9-14.9
	c9.5,0,13.8,3.9,13.8,12.7l0.1,33.8h10.1L531,140C531,127.8,522.9,120.8,508.6,120.8z"/>
<path fill="#0000A0" d="M595.8,168.1c-1.3,0.1-2.5,0.2-3.7,0.2c-1.4,0-2.6,0-2.6-4.3v-26.7c0-11.3-7.9-16.5-24.8-16.5
	c-16.5,0-24.4,5.7-25.7,18.5l-0.2,1.6h9.6l0.1-1.3c0.4-5.9,3.2-9.8,16-9.8c10,0,15.4,1.4,15.4,8.6c0,3.4,0,4.5-16.5,5.3
	c-8,0.4-26.8,1.2-26.8,17.4c0,11.6,10.7,16.7,21.2,16.7c13.5,0,19.7-4.4,22.8-8c0.6,3.2,2.5,6.8,9,6.8c2.3,0,4.6-0.5,6-0.7l1.5-0.3
	V168L595.8,168.1z M580,155.1c0,7-7,14.4-19.8,14.4c-8.8,0-13.3-3-13.3-8.9c0-4.9,3.5-7.2,12-8c11.7-1,17.5-1.6,21.1-2.9V155.1z"/>
<rect x="0" y="0" fill="none" width="599.3" height="228.3"/>
<g>
</g>
<g>
</g>
<g>
</g>
<g>
</g>
<g>
</g>
<g>
</g>
</svg>
